<svg width="101" height="24" viewBox="0 0 101 24" fill="none" xmlns="http://www.w3.org/2000/svg">
<path d="M6.70973 9.24088H7.99408V15.1204C7.99408 15.1969 8.05665 15.2595 8.13312 15.2595H9.1759C9.25237 15.2595 9.31494 15.1969 9.31494 15.1204V9.24088H10.6028C10.7192 9.24088 10.7835 9.10706 10.7123 9.01669L8.76574 6.55225C8.75274 6.53563 8.73612 6.52219 8.71715 6.51295C8.69818 6.5037 8.67735 6.4989 8.65625 6.4989C8.63515 6.4989 8.61432 6.5037 8.59535 6.51295C8.57638 6.52219 8.55976 6.53563 8.54676 6.55225L6.60023 9.01495C6.52898 9.10706 6.59328 9.24088 6.70973 9.24088V9.24088ZM15.0172 14.599H13.9744C13.898 14.599 13.8354 14.6616 13.8354 14.7381V17.4145H3.47711V14.7381C3.47711 14.6616 3.41454 14.599 3.33807 14.599H2.29529C2.21882 14.599 2.15625 14.6616 2.15625 14.7381V18.1793C2.15625 18.4869 2.40478 18.7354 2.7124 18.7354H14.6001C14.9077 18.7354 15.1562 18.4869 15.1562 18.1793V14.7381C15.1562 14.6616 15.0937 14.599 15.0172 14.599Z" fill="white"/>
<path d="M31.2212 13.5283C31.1138 14.666 30.6938 15.5547 29.9614 16.1943C29.229 16.8291 28.2549 17.1465 27.0391 17.1465C26.1895 17.1465 25.4399 16.9463 24.7905 16.5459C24.146 16.1406 23.6479 15.5669 23.2964 14.8247C22.9448 14.0825 22.7617 13.2207 22.7471 12.2393V11.2432C22.7471 10.2373 22.9253 9.35107 23.2817 8.58447C23.6382 7.81787 24.1484 7.22705 24.8125 6.81201C25.4814 6.39697 26.2529 6.18945 27.127 6.18945C28.3037 6.18945 29.251 6.50928 29.9688 7.14893C30.6865 7.78857 31.104 8.69189 31.2212 9.85889H29.3755C29.2876 9.09229 29.063 8.54053 28.7017 8.20361C28.3452 7.86182 27.8203 7.69092 27.127 7.69092C26.3213 7.69092 25.7012 7.98633 25.2666 8.57715C24.8369 9.16309 24.6172 10.0249 24.6074 11.1626V12.1074C24.6074 13.2598 24.8125 14.1387 25.2227 14.7441C25.6377 15.3496 26.2432 15.6523 27.0391 15.6523C27.7666 15.6523 28.3135 15.4888 28.6797 15.1616C29.0459 14.8345 29.2778 14.29 29.3755 13.5283H31.2212ZM34.4658 9.93945C35.0469 9.26562 35.7817 8.92871 36.6704 8.92871C38.3599 8.92871 39.2168 9.89307 39.2412 11.8218V17H37.4614V11.8877C37.4614 11.3408 37.3418 10.9551 37.1025 10.7305C36.8682 10.501 36.5215 10.3862 36.0625 10.3862C35.3496 10.3862 34.8174 10.7036 34.4658 11.3384V17H32.686V5.75H34.4658V9.93945ZM40.7134 12.9644C40.7134 12.188 40.8672 11.4897 41.1748 10.8696C41.4824 10.2446 41.9146 9.76611 42.4712 9.43408C43.0278 9.09717 43.6675 8.92871 44.3901 8.92871C45.4595 8.92871 46.3262 9.27295 46.9902 9.96143C47.6592 10.6499 48.0205 11.563 48.0742 12.7007L48.0815 13.1182C48.0815 13.8994 47.9302 14.5977 47.6274 15.2129C47.3296 15.8281 46.8999 16.3042 46.3384 16.6411C45.7817 16.978 45.1372 17.1465 44.4048 17.1465C43.2866 17.1465 42.3906 16.7754 41.7168 16.0332C41.0479 15.2861 40.7134 14.2925 40.7134 13.0522V12.9644ZM42.4932 13.1182C42.4932 13.9336 42.6616 14.5732 42.9985 15.0371C43.3354 15.4961 43.8042 15.7256 44.4048 15.7256C45.0054 15.7256 45.4717 15.4912 45.8037 15.0225C46.1406 14.5537 46.3091 13.8677 46.3091 12.9644C46.3091 12.1636 46.1357 11.5288 45.7891 11.0601C45.4473 10.5913 44.981 10.3569 44.3901 10.3569C43.8091 10.3569 43.3477 10.5889 43.0059 11.0527C42.6641 11.5117 42.4932 12.2002 42.4932 13.1182ZM49.2534 12.9644C49.2534 12.188 49.4072 11.4897 49.7148 10.8696C50.0225 10.2446 50.4546 9.76611 51.0112 9.43408C51.5679 9.09717 52.2075 8.92871 52.9302 8.92871C53.9995 8.92871 54.8662 9.27295 55.5303 9.96143C56.1992 10.6499 56.5605 11.563 56.6143 12.7007L56.6216 13.1182C56.6216 13.8994 56.4702 14.5977 56.1675 15.2129C55.8696 15.8281 55.4399 16.3042 54.8784 16.6411C54.3218 16.978 53.6772 17.1465 52.9448 17.1465C51.8267 17.1465 50.9307 16.7754 50.2568 16.0332C49.5879 15.2861 49.2534 14.2925 49.2534 13.0522V12.9644ZM51.0332 13.1182C51.0332 13.9336 51.2017 14.5732 51.5386 15.0371C51.8755 15.4961 52.3442 15.7256 52.9448 15.7256C53.5454 15.7256 54.0117 15.4912 54.3438 15.0225C54.6807 14.5537 54.8491 13.8677 54.8491 12.9644C54.8491 12.1636 54.6758 11.5288 54.3291 11.0601C53.9873 10.5913 53.521 10.3569 52.9302 10.3569C52.3491 10.3569 51.8877 10.5889 51.5459 11.0527C51.2041 11.5117 51.0332 12.2002 51.0332 13.1182ZM62.5688 14.8467C62.5688 14.5293 62.437 14.2876 62.1733 14.1216C61.9146 13.9556 61.4824 13.8091 60.877 13.6821C60.2715 13.5552 59.7661 13.394 59.3608 13.1987C58.4722 12.769 58.0278 12.1465 58.0278 11.3311C58.0278 10.6475 58.3159 10.0762 58.8921 9.61719C59.4683 9.1582 60.2007 8.92871 61.0894 8.92871C62.0366 8.92871 62.8008 9.16309 63.3818 9.63184C63.9678 10.1006 64.2607 10.7085 64.2607 11.4556H62.481C62.481 11.1138 62.354 10.8306 62.1001 10.606C61.8462 10.3765 61.5093 10.2617 61.0894 10.2617C60.6987 10.2617 60.3789 10.3521 60.1299 10.5327C59.8857 10.7134 59.7637 10.9551 59.7637 11.2578C59.7637 11.5312 59.8784 11.7437 60.1079 11.895C60.3374 12.0464 60.8013 12.2002 61.4995 12.3564C62.1978 12.5078 62.7446 12.6909 63.1401 12.9058C63.5405 13.1157 63.8359 13.3696 64.0264 13.6675C64.2217 13.9653 64.3193 14.3267 64.3193 14.7515C64.3193 15.4644 64.0239 16.043 63.4331 16.4873C62.8423 16.9268 62.0684 17.1465 61.1113 17.1465C60.4619 17.1465 59.8833 17.0293 59.3755 16.7949C58.8677 16.5605 58.4722 16.2383 58.189 15.8281C57.9058 15.418 57.7642 14.9761 57.7642 14.5024H59.4927C59.5171 14.9224 59.6758 15.2471 59.9688 15.4766C60.2617 15.7012 60.6499 15.8135 61.1333 15.8135C61.6021 15.8135 61.9585 15.7256 62.2026 15.5498C62.4468 15.3691 62.5688 15.1348 62.5688 14.8467ZM69.3657 17.1465C68.2378 17.1465 67.3223 16.7925 66.6191 16.0845C65.9209 15.3716 65.5718 14.4243 65.5718 13.2427V13.0229C65.5718 12.2319 65.7231 11.5264 66.0259 10.9062C66.3335 10.2812 66.7632 9.79541 67.3149 9.44873C67.8667 9.10205 68.4819 8.92871 69.1606 8.92871C70.2397 8.92871 71.0723 9.27295 71.6582 9.96143C72.249 10.6499 72.5444 11.624 72.5444 12.8838V13.6016H67.3662C67.4199 14.2559 67.6372 14.7734 68.0181 15.1543C68.4038 15.5352 68.8872 15.7256 69.4683 15.7256C70.2837 15.7256 70.9478 15.396 71.4604 14.7368L72.4199 15.6523C72.1025 16.126 71.6777 16.4946 71.1455 16.7583C70.6182 17.0171 70.0249 17.1465 69.3657 17.1465ZM69.1533 10.3569C68.665 10.3569 68.2695 10.5278 67.9668 10.8696C67.6689 11.2114 67.4785 11.6875 67.3955 12.2979H70.7866V12.166C70.7476 11.5703 70.5889 11.1211 70.3105 10.8184C70.0322 10.5107 69.6465 10.3569 69.1533 10.3569ZM83.9849 12.481H79.6929V17H77.8398V6.33594H84.6147V7.83008H79.6929V11.0015H83.9849V12.481ZM87.8081 17H86.0283V9.0752H87.8081V17ZM85.9185 7.01709C85.9185 6.74365 86.0039 6.5166 86.1748 6.33594C86.3506 6.15527 86.5996 6.06494 86.9219 6.06494C87.2441 6.06494 87.4932 6.15527 87.6689 6.33594C87.8447 6.5166 87.9326 6.74365 87.9326 7.01709C87.9326 7.28564 87.8447 7.51025 87.6689 7.69092C87.4932 7.8667 87.2441 7.95459 86.9219 7.95459C86.5996 7.95459 86.3506 7.8667 86.1748 7.69092C86.0039 7.51025 85.9185 7.28564 85.9185 7.01709ZM91.646 17H89.8662V5.75H91.646V17ZM97.0806 17.1465C95.9526 17.1465 95.0371 16.7925 94.334 16.0845C93.6357 15.3716 93.2866 14.4243 93.2866 13.2427V13.0229C93.2866 12.2319 93.438 11.5264 93.7407 10.9062C94.0483 10.2812 94.478 9.79541 95.0298 9.44873C95.5815 9.10205 96.1968 8.92871 96.8755 8.92871C97.9546 8.92871 98.7871 9.27295 99.373 9.96143C99.9639 10.6499 100.259 11.624 100.259 12.8838V13.6016H95.0811C95.1348 14.2559 95.3521 14.7734 95.7329 15.1543C96.1187 15.5352 96.6021 15.7256 97.1831 15.7256C97.9985 15.7256 98.6626 15.396 99.1753 14.7368L100.135 15.6523C99.8174 16.126 99.3926 16.4946 98.8604 16.7583C98.333 17.0171 97.7397 17.1465 97.0806 17.1465ZM96.8682 10.3569C96.3799 10.3569 95.9844 10.5278 95.6816 10.8696C95.3838 11.2114 95.1934 11.6875 95.1104 12.2979H98.5015V12.166C98.4624 11.5703 98.3037 11.1211 98.0254 10.8184C97.7471 10.5107 97.3613 10.3569 96.8682 10.3569Z" fill="white"/>
</svg>
