<svg width="79" height="78" viewBox="0 0 79 78" fill="none" xmlns="http://www.w3.org/2000/svg">
<path d="M39.4444 0C17.6604 0 0 17.4613 0 39.0001C0 60.5384 17.6604 78 39.4444 78C61.2289 78 78.8889 60.5384 78.8889 39.0001C78.8889 17.4613 61.2289 0 39.4444 0ZM39.4444 71.593C21.2388 71.593 6.47972 57.0004 6.47972 38.9999C6.47972 20.9992 21.2388 6.40671 39.4444 6.40671C57.6506 6.40671 72.4095 20.9994 72.4095 38.9999C72.4095 57.0004 57.6506 71.593 39.4444 71.593ZM54.3327 37.9859C55.5961 36.2228 56.35 34.016 56.35 31.6182C56.35 25.8489 51.9973 21.1717 46.6303 21.1717C46.2006 21.1717 45.6782 21.1717 45.0809 21.1717V13.0932C45.0809 12.6333 44.7001 12.2581 44.2362 12.2581H41.4167C40.9514 12.2581 40.572 12.6346 40.572 13.0932V21.1717H36.0643V13.0932C36.0643 12.6333 35.6834 12.2581 35.2196 12.2581H32.4027C31.9374 12.2581 31.5579 12.6346 31.5579 13.0932V21.1717H22.2599C21.7933 21.1717 21.4152 21.5455 21.4152 22.0069V24.8203C21.4152 25.2506 21.7403 25.6233 22.1741 25.6622C25.3488 25.9499 27.0502 28.056 27.0502 30.6434V47.9151C27.0502 50.243 25.8355 52.0906 23.1806 52.3435C22.8038 52.3799 22.4909 52.6447 22.4203 53.0134L21.8817 55.8535C21.7851 56.3605 22.1795 56.8301 22.7019 56.8301H31.5552V64.9086C31.5552 65.3684 31.936 65.7436 32.3998 65.7436H35.2168C35.6818 65.7436 36.0614 65.3673 36.0614 64.9086V56.8301H40.5692V64.9086C40.5692 65.3684 40.95 65.7436 41.4139 65.7436H44.2306C44.6958 65.7436 45.0753 65.3673 45.0753 64.9086V56.8301C46.6723 56.8301 47.9982 56.8301 48.8785 56.8301C54.2471 56.8301 58.5978 52.216 58.5978 46.5234C58.6033 42.9699 56.9106 39.8392 54.3327 37.9859ZM36.0631 27.8567C36.0631 27.8567 40.3978 27.8567 42.9657 27.8567C45.5339 27.8567 47.6146 29.9142 47.6146 32.4534C47.6146 34.9923 45.5339 37.0499 42.9657 37.0499C40.3978 37.0499 36.0631 37.0499 36.0631 37.0499V27.8567ZM45.2195 50.4216C42.6516 50.4216 36.0631 50.4216 36.0631 50.4216V41.2285C36.0631 41.2285 42.6516 41.2285 45.2195 41.2285C47.7878 41.2285 49.8684 43.2859 49.8684 45.8251C49.8684 48.3638 47.7878 50.4216 45.2195 50.4216Z" fill="#10D7FF"/>
</svg>
