<svg width="20" height="21" viewBox="0 0 20 21" fill="none" xmlns="http://www.w3.org/2000/svg">
<path d="M10.6007 0L10.3332 0.239255L0.586175 10.094L0 10.6819L0.587029 11.2971L8.70461 19.4147L9.31983 20.0017L9.90943 19.4147L19.7616 9.66761L20 9.3993V0H10.6007ZM11.3219 1.70896H18.291V8.67812L9.31898 17.5972L2.4028 10.681L11.3219 1.70896ZM15.7276 3.41793C15.501 3.41793 15.2836 3.50795 15.1234 3.6682C14.9631 3.82845 14.8731 4.04579 14.8731 4.27241C14.8731 4.49903 14.9631 4.71637 15.1234 4.87662C15.2836 5.03687 15.501 5.12689 15.7276 5.12689C15.9542 5.12689 16.1716 5.03687 16.3318 4.87662C16.492 4.71637 16.5821 4.49903 16.5821 4.27241C16.5821 4.04579 16.492 3.82845 16.3318 3.6682C16.1716 3.50795 15.9542 3.41793 15.7276 3.41793Z" fill="white"/>
</svg>
