<svg width="25" height="25" viewBox="0 0 25 25" fill="none" xmlns="http://www.w3.org/2000/svg">
<path d="M23.3447 20.8246C22.5987 20.1375 21.9456 19.3498 21.403 18.4828C20.8107 17.2859 20.4556 15.9789 20.3587 14.6384V10.69C20.3556 10.2104 20.3142 9.73193 20.235 9.25937C19.6261 9.13362 19.0409 8.9069 18.5022 8.588C18.7076 9.27123 18.8119 9.9826 18.8116 10.698V14.6463C18.9064 16.2816 19.3418 17.8765 20.088 19.322C20.622 20.1964 21.2557 21.0014 21.9755 21.7198H2.16466C2.88439 21.0014 3.51808 20.1964 4.05214 19.322C4.79833 17.8765 5.2337 16.2816 5.32851 14.6463V10.69C5.32444 9.76505 5.497 8.84831 5.83631 7.99233C6.17561 7.13634 6.67501 6.35791 7.30589 5.70162C7.93677 5.04532 8.68675 4.52405 9.51289 4.16765C10.339 3.81124 11.2251 3.62671 12.1203 3.62462C13.4306 3.6257 14.7114 4.02605 15.8025 4.77555C15.6822 4.31916 15.6147 3.84966 15.6014 3.37685V2.87332C14.7936 2.46279 13.9259 2.19275 13.0331 2.07407V1.06701C13.0331 0.784018 12.9243 0.512621 12.7307 0.312519C12.537 0.112416 12.2743 0 12.0004 0C11.7266 0 11.4639 0.112416 11.2702 0.312519C11.0765 0.512621 10.9677 0.784018 10.9677 1.06701V2.11403C8.96865 2.4054 7.13908 3.43419 5.8168 5.01048C4.49451 6.58676 3.76881 8.60409 3.77366 10.69V14.6384C3.67678 15.9789 3.32173 17.2859 2.72936 18.4828C2.19629 19.3478 1.5537 20.1354 0.818674 20.8246C0.736159 20.8995 0.670028 20.9917 0.624679 21.095C0.57933 21.1984 0.555803 21.3105 0.555664 21.424V22.511C0.555664 22.723 0.637164 22.9263 0.782234 23.0762C0.927304 23.2261 1.12406 23.3103 1.32922 23.3103H22.8341C23.0393 23.3103 23.236 23.2261 23.3811 23.0762C23.5262 22.9263 23.6077 22.723 23.6077 22.511V21.424C23.6075 21.3105 23.584 21.1984 23.5387 21.095C23.4933 20.9917 23.4272 20.8995 23.3447 20.8246Z" fill="white"/>
<path d="M21.1324 7.99255C23.2686 7.99255 25.0002 6.20336 25.0002 3.99628C25.0002 1.78919 23.2686 0 21.1324 0C18.9963 0 17.2646 1.78919 17.2646 3.99628C17.2646 6.20336 18.9963 7.99255 21.1324 7.99255Z" fill="#FF3E3E"/>
<path d="M12.3759 24.8409C12.8632 24.8293 13.3308 24.64 13.6961 24.3065C14.0613 23.973 14.3006 23.5168 14.3717 23.0186H10.3027C10.3758 23.5303 10.6263 23.9973 11.0077 24.3325C11.389 24.6677 11.8753 24.8483 12.3759 24.8409V24.8409Z" fill="white"/>
</svg>
