<svg width="69" height="32" viewBox="0 0 69 32" fill="none" xmlns="http://www.w3.org/2000/svg">
<path d="M1.33048 12.5373V0.870057H5.281C6.58454 0.870057 7.57678 1.13448 8.25749 1.66337C8.93844 2.19223 9.27866 2.98019 9.27866 4.02724C9.27866 4.56146 9.13624 5.04225 8.85139 5.46962C8.56628 5.89699 8.14948 6.22822 7.60048 6.46328C8.22331 6.63423 8.70347 6.95742 9.04121 7.43287C9.38443 7.90298 9.55579 8.46924 9.55579 9.13166C9.55579 10.2268 9.20758 11.0682 8.51091 11.6558C7.81948 12.2435 6.82724 12.5373 5.53418 12.5373H1.33048ZM3.33343 7.27259V10.9186H5.55812C6.18594 10.9186 6.67683 10.761 7.03052 10.4458C7.38397 10.1306 7.56082 9.69259 7.56082 9.13166C7.56082 7.91901 6.94871 7.2993 5.72424 7.27259H3.33343ZM3.33343 5.78214H5.29672C5.91955 5.78214 6.4052 5.64058 6.75341 5.35745C7.1071 5.06897 7.2837 4.66296 7.2837 4.13944C7.2837 3.56248 7.12032 3.14579 6.79307 2.88938C6.47105 2.63296 5.96694 2.50475 5.281 2.50475H3.33343V5.78214ZM13.4193 12.5373H11.4954V3.86699H13.4193V12.5373ZM11.3766 1.61527C11.3766 1.31611 11.4689 1.0677 11.6538 0.870057C11.8438 0.672393 12.113 0.573547 12.4612 0.573547C12.8096 0.573547 13.0788 0.672393 13.2688 0.870057C13.4587 1.0677 13.5537 1.31611 13.5537 1.61527C13.5537 1.9091 13.4587 2.15484 13.2688 2.35248C13.0788 2.54482 12.8096 2.64096 12.4612 2.64096C12.113 2.64096 11.8438 2.54482 11.6538 2.35248C11.4689 2.15484 11.3766 1.9091 11.3766 1.61527ZM17.9315 1.75951V3.86699H19.4436V5.30938H17.9315V10.1494C17.9315 10.4806 17.9949 10.721 18.1216 10.8705C18.2535 11.0148 18.4857 11.0869 18.8182 11.0869C19.04 11.0869 19.2642 11.0602 19.4912 11.0068V12.5133C19.0532 12.6361 18.6309 12.6976 18.2246 12.6976C16.7467 12.6976 16.0079 11.8722 16.0079 10.2215V5.30938H14.5988V3.86699H16.0079V1.75951H17.9315ZM29.9015 8.73903C29.7853 9.98375 29.3316 10.956 28.5399 11.6558C27.7482 12.3503 26.6953 12.6976 25.3811 12.6976C24.4629 12.6976 23.6527 12.4785 22.9508 12.0405C22.2542 11.5971 21.7156 10.9694 21.3358 10.1574C20.9556 9.34536 20.7578 8.40246 20.7421 7.32869V6.2389C20.7421 5.13842 20.9347 4.16883 21.3198 3.3301C21.7052 2.49139 22.2567 1.845 22.9745 1.39092C23.6974 0.936813 24.5315 0.709785 25.4761 0.709785C26.748 0.709785 27.7719 1.05969 28.5476 1.75951C29.3236 2.45933 29.7748 3.44763 29.9015 4.72441H27.9066C27.8115 3.88568 27.5688 3.28203 27.1782 2.91341C26.7929 2.53947 26.2256 2.35248 25.4761 2.35248C24.6053 2.35248 23.9351 2.6757 23.4654 3.3221C23.001 3.96314 22.7633 4.90604 22.7528 6.15076V7.18445C22.7528 8.4452 22.9745 9.40679 23.4178 10.0692C23.8665 10.7316 24.5208 11.0629 25.3811 11.0629C26.1675 11.0629 26.7587 10.8839 27.1545 10.526C27.5501 10.168 27.8008 9.57239 27.9066 8.73903H29.9015ZM31.1522 8.122C31.1522 7.27259 31.3186 6.50867 31.6511 5.83024C31.9836 5.14643 32.4505 4.62291 33.0524 4.25965C33.654 3.89103 34.3452 3.70672 35.1264 3.70672C36.2823 3.70672 37.2189 4.08334 37.9368 4.83659C38.6599 5.58983 39.0505 6.58881 39.1084 7.83352L39.1163 8.29028C39.1163 9.14502 38.9527 9.90894 38.6255 10.5821C38.3037 11.2552 37.8393 11.776 37.2321 12.1446C36.6305 12.5133 35.9338 12.6976 35.1421 12.6976C33.9336 12.6976 32.9651 12.2915 32.237 11.4795C31.5139 10.6622 31.1522 9.57506 31.1522 8.21817V8.122ZM33.0761 8.29028C33.0761 9.18241 33.2582 9.88223 33.6223 10.3897C33.9865 10.8919 34.4931 11.143 35.1421 11.143C35.7914 11.143 36.2955 10.8866 36.6542 10.3737C37.0184 9.86087 37.2005 9.1103 37.2005 8.122C37.2005 7.24591 37.0131 6.55141 36.6385 6.03858C36.2691 5.52572 35.765 5.26931 35.1264 5.26931C34.4983 5.26931 33.9997 5.52305 33.6301 6.03055C33.2607 6.53271 33.0761 7.28595 33.0761 8.29028ZM42.7898 12.5373H40.8659V3.86699H42.7898V12.5373ZM40.7471 1.61527C40.7471 1.31611 40.8394 1.0677 41.0243 0.870057C41.2143 0.672393 41.4835 0.573547 41.8317 0.573547C42.1801 0.573547 42.4493 0.672393 42.6393 0.870057C42.8292 1.0677 42.9242 1.31611 42.9242 1.61527C42.9242 1.9091 42.8292 2.15484 42.6393 2.35248C42.4493 2.54482 42.1801 2.64096 41.8317 2.64096C41.4835 2.64096 41.2143 2.54482 41.0243 2.35248C40.8394 2.15484 40.7471 1.9091 40.7471 1.61527ZM46.6767 3.86699L46.732 4.86865C47.3654 4.09402 48.1967 3.70672 49.2259 3.70672C51.0098 3.70672 51.9175 4.74044 51.9492 6.80783V12.5373H50.0253V6.92003C50.0253 6.36978 49.9066 5.96377 49.6691 5.702C49.4369 5.43491 49.0543 5.30135 48.5212 5.30135C47.7455 5.30135 47.1675 5.65661 46.7874 6.36711V12.5373H44.8638V3.86699H46.6767ZM10.1257 23.8877C10.0098 25.1324 9.55579 26.1047 8.76433 26.8046C7.97263 27.4989 6.91953 27.8463 5.60551 27.8463C4.6871 27.8463 3.87694 27.6271 3.17504 27.1891C2.47837 26.7457 1.94009 26.1181 1.56021 25.3061C1.18007 24.4941 0.982272 23.5511 0.966309 22.4773V21.3876C0.966309 20.2871 1.15912 19.3175 1.54425 18.4788C1.92962 17.6401 2.48112 16.9937 3.19899 16.5396C3.92184 16.0855 4.75569 15.8585 5.70055 15.8585C6.97241 15.8585 7.99633 16.2084 8.77207 16.9082C9.54805 17.608 9.99928 18.5963 10.1257 19.8731H8.13078C8.03599 19.0343 7.79304 18.4307 7.40268 18.0621C7.01731 17.6881 6.44984 17.5012 5.70055 17.5012C4.82978 17.5012 4.1593 17.8244 3.68962 18.4708C3.22517 19.1118 2.98771 20.0547 2.97724 21.2995V22.3332C2.97724 23.5938 3.19898 24.5555 3.64223 25.218C4.09071 25.8802 4.74522 26.2115 5.60551 26.2115C6.39198 26.2115 6.98289 26.0325 7.37874 25.6747C7.77459 25.3167 8.02527 24.7211 8.13078 23.8877H10.1257ZM11.3766 23.2706C11.3766 22.4213 11.543 21.6573 11.8755 20.9789C12.208 20.2951 12.6749 19.7716 13.2766 19.4083C13.8782 19.0397 14.5696 18.8554 15.3509 18.8554C16.5067 18.8554 17.4434 19.232 18.1612 19.9853C18.8843 20.7385 19.2747 21.7376 19.3328 22.9823L19.3408 23.439C19.3408 24.2937 19.1772 25.0577 18.8499 25.7308C18.5279 26.4039 18.0635 26.9247 17.4566 27.2934C16.8549 27.662 16.1583 27.8463 15.3666 27.8463C14.1581 27.8463 13.1895 27.4403 12.4612 26.6283C11.7383 25.8108 11.3766 24.7236 11.3766 23.3668V23.2706ZM13.3005 23.439C13.3005 24.331 13.4826 25.0309 13.8465 25.5384C14.2107 26.0406 14.7176 26.2918 15.3666 26.2918C16.0159 26.2918 16.5197 26.0353 16.8786 25.5225C17.2428 25.0094 17.4249 24.2591 17.4249 23.2706C17.4249 22.3945 17.2376 21.7002 16.8629 21.1873C16.4935 20.6744 15.9894 20.418 15.3509 20.418C14.7228 20.418 14.2239 20.6717 13.8545 21.1792C13.4851 21.6813 13.3005 22.4347 13.3005 23.439ZM22.7765 19.0157L22.8319 19.9212C23.4337 19.2107 24.2569 18.8554 25.302 18.8554C26.4471 18.8554 27.2309 19.2988 27.6532 20.1856C28.276 19.2988 29.152 18.8554 30.2814 18.8554C31.2263 18.8554 31.9282 19.1198 32.3874 19.6487C32.8518 20.1776 33.0893 20.9575 33.0998 21.9885V27.686H31.1761V22.0446C31.1761 21.4944 31.0574 21.0911 30.8197 20.8347C30.5822 20.5782 30.1891 20.45 29.6401 20.45C29.2021 20.45 28.8432 20.5702 28.5636 20.8106C28.2892 21.0457 28.0964 21.3556 27.9856 21.7401L27.9936 27.686H26.0698V21.9805C26.0436 20.9602 25.529 20.45 24.526 20.45C23.7555 20.45 23.2093 20.7679 22.8875 21.4036V27.686H20.9636V19.0157H22.7765ZM42.576 23.439C42.576 24.7799 42.2752 25.8509 41.6735 26.6523C41.0717 27.4481 40.2642 27.8463 39.251 27.8463C38.3114 27.8463 37.5594 27.5337 36.9947 26.9086V31.0194H35.071V19.0157H36.8443L36.9236 19.8971C37.4883 19.2026 38.2561 18.8554 39.2271 18.8554C40.2722 18.8554 41.0901 19.2507 41.6813 20.0414C42.2777 20.8266 42.576 21.9191 42.576 23.3188V23.439ZM40.6601 23.2706C40.6601 22.4051 40.4885 21.7189 40.1455 21.2113C39.8078 20.7038 39.3221 20.45 38.6888 20.45C37.9026 20.45 37.3379 20.7786 36.9947 21.4356V25.2821C37.3431 25.9552 37.9131 26.2918 38.7048 26.2918C39.3169 26.2918 39.7946 26.0433 40.1375 25.5465C40.486 25.0443 40.6601 24.2856 40.6601 23.2706ZM49.3286 27.686C49.2443 27.5203 49.1705 27.2507 49.1071 26.8765C48.4948 27.5231 47.7455 27.8463 46.8588 27.8463C45.9985 27.8463 45.2966 27.5978 44.753 27.101C44.2093 26.6041 43.9376 25.9898 43.9376 25.2579C43.9376 24.3338 44.2754 23.6259 44.9508 23.1345C45.6318 22.6377 46.6028 22.3892 47.8642 22.3892H49.0438V21.8204C49.0438 21.3715 48.9198 21.0136 48.6716 20.7465C48.4237 20.4741 48.0463 20.3378 47.5397 20.3378C47.1015 20.3378 46.7428 20.45 46.4629 20.6744C46.1833 20.8934 46.0434 21.1739 46.0434 21.5159H44.1197C44.1197 21.0403 44.2754 20.5969 44.5867 20.1856C44.8982 19.7689 45.3202 19.443 45.8533 19.208C46.3918 18.9729 46.9907 18.8554 47.6505 18.8554C48.6532 18.8554 49.4529 19.1118 50.0493 19.6247C50.6456 20.1322 50.9517 20.848 50.9674 21.7722V25.6825C50.9674 26.4627 51.0757 27.0851 51.2922 27.5496V27.686H49.3286ZM47.2149 26.2837C47.5951 26.2837 47.9513 26.1903 48.2838 26.0032C48.6215 25.8161 48.8749 25.5651 49.0438 25.2501V23.6153H48.0066C47.2943 23.6153 46.7585 23.7407 46.3995 23.992C46.0406 24.2429 45.8613 24.5982 45.8613 25.0577C45.8613 25.4316 45.9827 25.7308 46.2254 25.9552C46.4736 26.1741 46.8034 26.2837 47.2149 26.2837ZM54.7675 19.0157L54.8229 20.0173C55.4562 19.2427 56.2873 18.8554 57.3165 18.8554C59.1004 18.8554 60.0081 19.8891 60.0398 21.9565V27.686H58.1162V22.0686C58.1162 21.5184 57.9974 21.1124 57.76 20.8507C57.5278 20.5836 57.1451 20.45 56.6121 20.45C55.8361 20.45 55.2582 20.8053 54.8783 21.5159V27.686H52.9546V19.0157H54.7675ZM65.0035 24.8973L66.7453 19.0157H68.7956L65.3914 29.0001C64.8691 30.4584 63.9823 31.1878 62.7314 31.1878C62.4518 31.1878 62.143 31.1396 61.8053 31.0434V29.5371L62.1694 29.5611C62.6551 29.5611 63.0193 29.4702 63.262 29.2887C63.5099 29.1122 63.7052 28.8133 63.8476 28.3911L64.1248 27.6458L61.1166 19.0157H63.1906L65.0035 24.8973Z" fill="white"/>
</svg>
