<svg width="85" height="85" viewBox="0 0 85 85" fill="none" xmlns="http://www.w3.org/2000/svg">
<g opacity="0.1">
<path d="M78.3382 38.4075H75.8812V22.6095C75.8812 21.9112 75.6223 21.2415 75.1615 20.7477C74.7007 20.2539 74.0758 19.9765 73.4241 19.9765H14.4549C13.8731 19.9867 13.3068 19.7752 12.8569 19.3798C12.4069 18.9845 12.1025 18.4308 11.9978 17.8174V16.8695C12.1025 16.2562 12.4069 15.7025 12.8569 15.3071C13.3068 14.9117 13.8731 14.7003 14.4549 14.7105H72.3922C73.0438 14.7105 73.6688 14.4331 74.1296 13.9393C74.5904 13.4455 74.8492 12.7758 74.8492 12.0775C74.8492 11.3791 74.5904 10.7094 74.1296 10.2156C73.6688 9.72186 73.0438 9.44446 72.3922 9.44446H14.4549C12.4999 9.44446 10.6251 10.2767 9.2427 11.758C7.86034 13.2394 7.08374 15.2485 7.08374 17.3435C7.06649 17.6592 7.06649 17.9757 7.08374 18.2914V72.4523C7.09338 73.87 7.36351 75.2717 7.8787 76.5775C8.39389 77.8833 9.14406 79.0676 10.0864 80.0627C11.0287 81.0578 12.1446 81.8443 13.3706 82.3772C14.5965 82.9101 15.9084 83.1791 17.2314 83.1687H73.4241C74.0758 83.1687 74.7007 82.8913 75.1615 82.3975C75.6223 81.9037 75.8812 81.234 75.8812 80.5356V64.7376H78.3382C78.9899 64.7376 79.6148 64.4602 80.0756 63.9664C80.5364 63.4726 80.7953 62.8029 80.7953 62.1046V41.0405C80.7953 40.3422 80.5364 39.6725 80.0756 39.1787C79.6148 38.6849 78.9899 38.4075 78.3382 38.4075ZM70.9671 77.9026H17.2314C15.8648 77.9168 14.5482 77.3521 13.5681 76.3314C12.588 75.3107 12.0237 73.9166 11.9978 72.4523V24.9265C12.7954 25.1742 13.6253 25.2809 14.4549 25.2425H70.9671V38.4075H53.7677C50.5095 38.4075 47.3847 39.7946 45.0807 42.2635C42.7768 44.7324 41.4825 48.081 41.4825 51.5726C41.4825 55.0642 42.7768 58.4127 45.0807 60.8817C47.3847 63.3506 50.5095 64.7376 53.7677 64.7376H70.9671V77.9026ZM75.8812 59.4716H53.7677C51.8128 59.4716 49.9379 58.6394 48.5555 57.158C47.1732 55.6767 46.3966 53.6675 46.3966 51.5726C46.3966 49.4776 47.1732 47.4685 48.5555 45.9871C49.9379 44.5058 51.8128 43.6735 53.7677 43.6735H75.8812V59.4716Z" fill="#02265A"/>
<path d="M56.2495 55.5221C58.285 55.5221 59.9351 53.7538 59.9351 51.5726C59.9351 49.3913 58.285 47.623 56.2495 47.623C54.2141 47.623 52.564 49.3913 52.564 51.5726C52.564 53.7538 54.2141 55.5221 56.2495 55.5221Z" fill="#02265A"/>
</g>
</svg>
